# xmcd
#
# Track frame offsets:
#	150
#	2418
#	31658
#	38241
#	61631
#	81094
#	102247
#	123026
#	138396
#	156132
#	169040
#	178356
#	188462
#	220249
#	226327
#	252110
#	269479
#	276934
#	284224
#	287912
#	309408
#
# Disc length: 4326 seconds
#
# Revision: 0
# Processed by: cddbd v1.5.2PL0 Copyright (c) Steve Scherf et al.
# Submitted via: audiograbber 1.83.01
#
DISCID=2310e415
DTITLE=Mr BRUN - LIVE 1993 à 2003 (et 'tain qué dur à trouver)
DYEAR=1900
DGENRE=FUNK
TTITLE0=Intro
TTITLE1=Taille Hot
TTITLE2=Fatima du monde
TTITLE3=Mad in Marseille
TTITLE4=Dernier ange maudit
TTITLE5=Funk with the Band
TTITLE6=Soul Revendication
TTITLE7=M'engatse pas
TTITLE8=Marius
TTITLE9=J'ai les boules
TTITLE10=Koudoun bedouk kou cla
TTITLE11=House Party
TTITLE12=Dame du Monde
TTITLE13=Improviste
TTITLE14=Gros plein de Soul
TTITLE15=A ta manière
TTITLE16=N'engatse pas John
TTITLE17=Eric Party
TTITLE18=Charly Revendication
TTITLE19=Taille Hot (Fred Version)
TTITLE20=Sale part two
EXTD=
EXTT0=
EXTT1=
EXTT2=
EXTT3=
EXTT4=
EXTT5=
EXTT6=
EXTT7=
EXTT8=
EXTT9=
EXTT10=
EXTT11=
EXTT12=
EXTT13=
EXTT14=
EXTT15=
EXTT16=
EXTT17=
EXTT18=
EXTT19=
EXTT20=
PLAYORDER=
